<?xml version="1.0" standalone="no"?>
<!DOCTYPE svg PUBLIC "-//W3C//DTD SVG 20010904//EN"
 "http://www.w3.org/TR/2001/REC-SVG-20010904/DTD/svg10.dtd">
<svg version="1.0" xmlns="http://www.w3.org/2000/svg"
 width="403.000000pt" height="512.000000pt" viewBox="0 0 403.000000 512.000000"
 preserveAspectRatio="xMidYMid meet">

<g transform="translate(0.000000,512.000000) scale(0.100000,-0.100000)"
fill="#000000" stroke="none">
<path d="M2306 5111 c-3 -5 -1 -32 4 -61 23 -119 4 -265 -39 -304 -16 -15 -22
-15 -41 -4 -20 12 -24 10 -38 -12 -37 -54 -68 -84 -107 -101 -55 -25 -88 -24
-123 6 -54 45 -81 27 -107 -75 -9 -35 -29 -80 -44 -100 -39 -50 -38 -47 -61
-150 -22 -101 -58 -170 -89 -170 -21 0 -26 15 -37 100 -6 48 -12 60 -48 91
-41 36 -41 37 -41 105 1 56 8 86 38 159 20 49 37 98 37 110 0 11 7 29 15 39
11 14 12 23 4 32 -22 27 -47 -3 -64 -77 -8 -39 -24 -88 -35 -108 -24 -45 -101
-127 -128 -135 -25 -8 -59 -78 -79 -165 -11 -47 -23 -73 -42 -88 -26 -22 -26
-25 -26 -150 0 -110 -3 -135 -22 -175 -26 -58 -59 -80 -109 -76 -31 2 -43 10
-62 38 -68 102 -88 105 -87 13 0 -66 1 -68 33 -88 146 -89 155 -99 124 -143
-12 -17 -22 -45 -22 -64 0 -19 -5 -39 -11 -45 -9 -9 -6 -10 11 -6 21 6 22 4
17 -23 -4 -16 -12 -60 -18 -99 -18 -111 -19 -115 -30 -115 -7 0 -40 -14 -75
-31 -71 -35 -134 -97 -134 -132 0 -12 -9 -31 -21 -40 -13 -12 -19 -27 -17 -45
2 -22 9 -27 33 -30 46 -4 57 10 61 74 6 79 38 132 102 167 27 15 54 27 60 27
5 0 17 -31 26 -70 l15 -69 -29 -30 c-33 -32 -38 -66 -16 -97 11 -15 25 -19 65
-17 56 1 61 -5 30 -33 -20 -18 -21 -34 -8 -121 2 -13 30 -16 101 -13 47 2 73
-32 66 -88 -7 -48 -2 -60 50 -117 32 -36 42 -55 42 -81 0 -19 -3 -34 -7 -34
-19 0 -152 88 -194 129 -53 51 -61 76 -28 86 40 13 15 40 -87 90 -56 28 -108
56 -117 63 -23 19 -31 70 -16 98 10 19 10 27 1 36 -20 20 -46 -4 -48 -45 -2
-28 5 -46 33 -82 26 -34 32 -50 24 -58 -15 -15 -14 -44 3 -54 7 -4 15 -29 18
-54 6 -53 39 -95 134 -170 44 -35 52 -47 48 -66 -7 -25 13 -32 33 -12 19 19
63 -15 56 -41 -5 -20 -10 -21 -72 -14 -36 3 -74 11 -84 16 -9 5 -22 6 -27 3
-11 -7 -33 32 -25 45 3 6 1 10 -4 10 -6 0 -11 -5 -11 -10 0 -6 -11 -16 -25
-22 -23 -10 -28 -9 -42 12 -14 20 -17 21 -28 7 -10 -14 -25 -11 -141 27 -284
96 -523 241 -650 394 -103 125 -150 256 -164 452 l-9 115 4 -120 c6 -183 47
-306 149 -442 105 -140 309 -279 537 -369 51 -20 69 -32 69 -46 0 -20 36 -26
42 -7 4 13 58 1 58 -13 0 -5 5 -6 10 -3 6 4 16 2 23 -3 7 -5 34 -12 61 -16 27
-3 58 -13 67 -22 12 -10 27 -14 41 -10 26 7 196 -12 218 -25 12 -6 8 -11 -17
-21 -38 -14 -40 -21 -13 -50 11 -12 20 -25 20 -29 0 -15 -83 26 -88 43 -3 13
-13 18 -31 16 -15 -1 -40 8 -56 20 -49 36 -86 38 -122 8 l-31 -26 -35 35 c-38
38 -63 43 -111 20 -89 -42 -82 -171 9 -176 17 -1 42 2 57 6 23 6 26 4 21 -13
-8 -31 26 -37 37 -6 11 28 5 48 -12 38 -6 -4 -2 7 8 25 10 17 25 31 34 30 31
-3 40 1 40 19 0 9 9 23 19 29 16 10 20 9 25 -3 10 -25 7 -31 -15 -37 -16 -4
-20 -12 -17 -34 2 -22 9 -29 31 -31 31 -4 60 14 50 31 -4 7 0 8 13 2 10 -4 40
-10 66 -12 53 -6 55 -8 33 -29 -8 -9 -15 -31 -15 -51 0 -37 -21 -62 -51 -63
-20 0 -59 -41 -59 -62 0 -28 34 -49 70 -42 31 7 32 6 20 -16 -7 -13 -8 -20 -2
-16 6 4 25 -2 43 -13 l32 -19 -40 -11 c-23 -6 -46 -17 -52 -25 -10 -12 -19
-12 -56 0 l-45 13 6 -27 c9 -37 23 -52 46 -52 25 0 61 -42 45 -52 -7 -4 -109
-8 -227 -8 -198 0 -282 -8 -294 -29 -3 -4 8 -5 24 -3 33 5 48 -8 123 -106 70
-92 99 -97 223 -40 23 10 49 16 58 12 10 -4 18 0 22 10 4 9 20 24 37 32 24 13
31 14 38 2 5 -7 6 -21 3 -30 -3 -10 -1 -18 5 -18 5 0 23 -12 40 -26 l31 -26
-25 -20 c-96 -75 -81 -227 33 -343 137 -140 319 -120 364 39 16 53 12 51 113
61 l60 6 -45 -20 c-29 -12 -44 -24 -42 -34 1 -9 -2 -18 -7 -21 -13 -9 -2 -47
22 -73 13 -14 32 -23 51 -23 24 0 27 -3 16 -10 -26 -16 -69 -11 -92 12 -20 20
-22 20 -34 3 -7 -10 -11 -22 -8 -27 6 -10 -8 -15 -56 -21 -19 -3 -79 -21 -133
-40 -150 -54 -219 -101 -198 -135 11 -18 36 -5 66 33 33 44 148 100 243 120
92 19 89 19 95 -5 7 -27 23 -25 52 4 20 20 42 33 75 41 38 11 97 67 137 133
22 36 56 57 74 46 5 -3 9 -18 9 -33 0 -45 18 -53 96 -43 38 5 76 12 85 16 31
13 67 -30 80 -95 15 -76 42 -108 118 -143 98 -44 157 -52 238 -34 37 8 76 19
87 23 15 7 17 5 12 -13 -5 -15 -1 -24 12 -31 20 -10 64 10 108 50 20 19 21 19
39 -1 13 -15 31 -20 64 -20 41 0 49 4 80 41 33 40 61 111 61 154 0 14 -16 32
-45 53 -49 34 -50 44 -7 66 25 13 33 12 77 -8 120 -54 157 -62 178 -42 9 9 33
24 53 32 33 14 38 14 56 -3 11 -10 31 -39 44 -65 33 -65 54 -75 106 -48 l40
21 39 -41 c45 -47 103 -163 118 -238 20 -95 14 -160 -19 -231 -35 -74 -33
-101 10 -101 51 0 64 34 57 148 -12 192 -52 334 -155 541 -37 74 -68 138 -70
141 -5 12 69 40 104 40 29 0 45 -10 89 -51 52 -49 85 -59 85 -26 0 20 -121
166 -190 231 l-61 56 25 31 c38 45 36 99 -5 133 -26 22 -40 26 -95 26 -38 0
-77 -6 -94 -15 l-29 -15 -243 171 c-134 94 -252 180 -262 190 -20 18 -20 19 5
45 21 23 29 25 69 20 117 -17 140 -18 140 -8 0 5 -43 20 -95 33 -82 20 -93 25
-82 38 10 14 10 14 -5 3 -14 -11 -30 -9 -98 9 -95 26 -115 46 -151 151 l-23
66 21 19 c29 25 37 86 14 107 -19 18 -33 12 -24 -10 3 -9 -2 -14 -15 -14 -18
0 -21 9 -27 74 -6 59 -4 78 9 98 14 21 14 26 1 46 -12 16 -14 40 -10 104 16
242 86 508 181 685 49 92 57 143 23 143 -32 0 -73 -49 -98 -115 -13 -33 -39
-155 -58 -272 l-36 -212 -29 6 c-46 9 -103 -58 -63 -74 9 -3 24 2 34 11 24 22
52 11 46 -18 -2 -11 -16 -72 -30 -135 -13 -63 -29 -119 -35 -125 -5 -5 -10
-22 -10 -36 0 -15 -13 -53 -30 -86 -46 -93 -110 -149 -110 -99 0 8 -12 22 -27
32 -16 9 -47 37 -70 62 -35 39 -40 48 -29 61 38 44 20 115 -39 152 -33 21 -36
26 -32 61 6 43 -8 42 -16 -2 -8 -37 -55 -50 -76 -20 -7 10 -21 19 -30 19 -12
0 -10 -5 9 -20 24 -18 24 -20 7 -37 -18 -17 -19 -17 -33 1 -7 11 -17 16 -21
13 -3 -4 2 -13 12 -21 17 -12 18 -17 7 -42 -16 -33 -16 -33 -102 90 -94 135
-126 196 -109 206 10 7 16 0 24 -23 7 -22 17 -33 32 -35 15 -2 25 -13 29 -28
8 -32 52 -66 76 -59 10 4 18 2 18 -4 0 -15 45 -14 58 2 14 17 6 97 -13 133 -8
16 -15 25 -15 19 0 -5 -5 -2 -11 8 -12 21 -31 23 -23 2 9 -23 -45 -19 -72 5
-19 19 -20 25 -10 53 6 18 21 45 34 61 26 34 28 49 6 70 -26 26 -70 20 -95
-14 -12 -16 -35 -34 -51 -39 l-28 -10 0 57 c0 97 32 184 117 323 27 44 34 65
31 95 -3 36 -6 39 -36 42 -38 4 -64 37 -55 70 3 12 9 22 14 22 5 0 9 6 9 13 0
8 22 51 49 96 28 45 55 97 61 116 13 40 54 54 101 35 38 -16 79 0 79 30 0 34
-45 37 -107 6 -64 -31 -63 -31 -63 -6 0 33 31 86 139 234 116 159 175 271 196
371 18 87 20 286 3 303 -14 14 -25 15 -32 3z m-891 -758 c-8 -27 -29 -62 -50
-82 l-36 -36 15 42 c18 52 34 83 54 106 26 29 32 19 17 -30z m-210 -891 c11
-3 24 -11 28 -19 6 -10 13 -10 28 -3 18 10 19 7 19 -47 0 -32 -4 -63 -8 -69
-7 -11 -96 -34 -132 -34 -17 0 -20 7 -20 55 0 70 26 139 49 129 9 -3 25 -9 36
-12z m119 -110 l-29 -25 -3 22 c-5 34 15 53 41 39 20 -11 20 -11 -9 -36z m-56
-68 c28 -8 32 -54 5 -54 -34 -1 -102 -77 -89 -99 4 -5 2 -12 -3 -16 -16 -9
-34 34 -21 50 9 11 7 16 -8 24 -18 10 -38 68 -27 79 5 5 71 18 105 21 8 0 25
-2 38 -5z m102 -928 c0 -22 -16 -28 -29 -12 -9 11 -9 15 1 19 22 9 28 8 28 -7z
m-159 -335 c-12 -22 -31 -28 -31 -10 0 23 22 51 32 41 7 -7 6 -17 -1 -31z m88
-192 c-21 -13 -32 -11 -25 7 3 9 6 20 6 26 0 5 7 2 17 -7 14 -14 14 -18 2 -26z
m117 -44 c7 -38 -2 -101 -15 -110 -5 -3 -7 4 -4 16 4 12 -3 32 -16 49 -24 34
-26 45 -8 65 20 24 36 17 43 -20z m74 -146 c10 -24 10 -32 0 -42 -10 -9 -14
-9 -17 1 -3 6 -11 12 -19 12 -15 0 -18 18 -8 44 10 25 31 19 44 -15z m1030
-68 c5 -11 10 -29 10 -40 0 -19 -6 -21 -61 -21 -44 0 -60 3 -56 13 2 6 12 12
23 13 34 2 37 4 25 18 -10 11 -8 17 6 25 27 15 41 13 53 -8z m-674 -296 c9
-14 23 -25 30 -25 25 0 15 -20 -33 -68 -25 -26 -37 -35 -25 -21 41 48 24 118
-33 132 -13 3 -9 5 12 6 24 1 37 -5 49 -24z m979 -65 c3 -5 -1 -10 -9 -10 -9
0 -16 5 -16 10 0 6 4 10 9 10 6 0 13 -4 16 -10z"/>
<path d="M1691 4976 c-7 -8 -8 -17 -3 -20 6 -3 15 1 21 8 7 8 8 17 3 20 -6 3
-15 -1 -21 -8z"/>
<path d="M1160 4950 c-12 -8 -10 -10 8 -10 13 0 20 4 17 10 -7 12 -6 12 -25 0z"/>
<path d="M2649 4931 c-23 -19 -23 -20 -6 -38 19 -19 41 -12 61 20 8 13 7 20
-4 27 -21 13 -25 13 -51 -9z"/>
<path d="M1140 4903 c-71 -26 -62 -102 13 -103 20 0 32 8 47 33 24 39 24 41 4
61 -16 16 -37 19 -64 9z"/>
<path d="M1778 4899 c-25 -14 -22 -46 3 -54 24 -8 41 9 37 39 -4 24 -17 29
-40 15z"/>
<path d="M2683 4866 c-21 -18 -31 -21 -44 -13 -13 8 -22 7 -33 -2 -20 -17 -21
-51 -1 -51 20 0 19 -1 -10 -57 -33 -61 -30 -87 10 -91 55 -5 195 126 195 183
0 55 -68 73 -117 31z"/>
<path d="M1993 4828 c2 -7 10 -13 17 -13 7 0 15 6 18 13 2 7 -5 12 -18 12 -13
0 -20 -5 -17 -12z"/>
<path d="M853 4769 c-57 -36 -86 -104 -67 -154 4 -8 20 -23 36 -31 89 -46 225
67 188 155 -21 52 -99 67 -157 30z"/>
<path d="M2505 4620 c-3 -5 -1 -10 4 -10 6 0 11 5 11 10 0 6 -2 10 -4 10 -3 0
-8 -4 -11 -10z"/>
<path d="M2593 4417 c-130 -53 -247 -131 -354 -237 -95 -94 -136 -161 -127
-204 4 -21 24 -17 21 4 -6 33 10 65 59 116 53 56 64 62 71 42 2 -7 3 -5 2 4
-4 22 27 42 104 68 77 25 89 25 93 -2 5 -34 32 -27 140 37 52 30 121 64 153
75 32 11 66 26 74 34 9 8 32 21 51 28 l35 15 -25 13 c-14 7 -53 14 -87 15 -35
0 -68 6 -75 13 -19 19 -46 14 -135 -21z"/>
<path d="M337 4434 c-4 -4 -7 -23 -7 -43 0 -35 -22 -88 -159 -395 -93 -206
-162 -432 -160 -521 1 -16 8 8 16 55 33 186 116 397 268 682 91 169 107 221
70 226 -12 2 -24 0 -28 -4z"/>
<path d="M1266 4415 c4 -8 12 -15 20 -15 8 0 11 6 8 15 -4 8 -12 15 -20 15 -8
0 -11 -6 -8 -15z"/>
<path d="M594 4397 c-46 -40 -30 -107 26 -107 64 0 105 75 62 113 -26 23 -56
21 -88 -6z"/>
<path d="M1132 4313 c2 -10 10 -18 18 -18 8 0 16 8 18 18 2 12 -3 17 -18 17
-15 0 -20 -5 -18 -17z"/>
<path d="M1200 4308 c0 -29 16 -46 31 -31 6 6 2 19 -10 34 l-20 24 -1 -27z"/>
<path d="M521 4174 c-12 -15 -21 -30 -21 -33 0 -15 32 -51 46 -51 20 0 17 -17
-6 -33 -16 -11 -18 -16 -8 -24 26 -21 56 -24 72 -8 20 20 20 39 1 55 -13 11
-13 15 0 33 46 66 -35 123 -84 61z"/>
<path d="M1157 4163 c-12 -11 -8 -23 8 -23 8 0 15 7 15 15 0 16 -12 20 -23 8z"/>
<path d="M964 4095 c-32 -32 -29 -71 8 -98 67 -50 157 44 98 103 -28 28 -75
26 -106 -5z"/>
<path d="M644 4086 c-16 -13 -17 -18 -7 -35 7 -11 10 -28 6 -37 -4 -12 -1 -15
13 -12 10 2 18 10 16 17 -1 6 4 22 13 33 11 16 12 25 3 35 -13 17 -20 16 -44
-1z"/>
<path d="M2087 4059 c4 -13 8 -18 11 -10 2 7 -1 18 -6 23 -8 8 -9 4 -5 -13z"/>
<path d="M410 4060 c-12 -7 -13 -13 -4 -27 6 -10 9 -34 6 -52 -5 -38 15 -61
53 -61 48 0 75 77 36 101 -11 7 -16 19 -13 31 3 15 -2 18 -29 18 -19 0 -41 -5
-49 -10z"/>
<path d="M785 4001 c-6 -11 9 -23 19 -14 9 9 7 23 -3 23 -6 0 -12 -4 -16 -9z"/>
<path d="M842 3988 c-7 -7 -12 -25 -12 -40 0 -22 5 -28 21 -28 31 0 59 18 59
38 0 22 -19 42 -40 42 -9 0 -21 -5 -28 -12z"/>
<path d="M710 3945 c0 -8 7 -15 15 -15 8 0 15 7 15 15 0 8 -7 15 -15 15 -8 0
-15 -7 -15 -15z"/>
<path d="M580 3939 c0 -5 5 -7 10 -4 6 3 10 8 10 11 0 2 -4 4 -10 4 -5 0 -10
-5 -10 -11z"/>
<path d="M2175 3890 c-3 -5 1 -10 9 -10 8 0 18 5 21 10 3 6 -1 10 -9 10 -8 0
-18 -4 -21 -10z"/>
<path d="M2046 3851 c-18 -20 -18 -21 -1 -27 21 -8 50 7 50 27 0 22 -30 22
-49 0z"/>
<path d="M2030 3791 c0 -5 7 -15 17 -22 15 -13 15 -12 4 9 -12 23 -21 28 -21
13z"/>
<path d="M2649 3783 c-13 -16 -12 -17 4 -4 16 13 21 21 13 21 -2 0 -10 -8 -17
-17z"/>
<path d="M942 3718 c-7 -7 -28 -11 -46 -10 -74 7 -120 -85 -61 -124 20 -13 31
-14 56 -5 40 14 58 38 59 77 0 19 6 34 15 38 18 7 20 36 2 36 -7 0 -19 -6 -25
-12z"/>
<path d="M1963 3684 c-9 -23 13 -40 32 -24 8 7 15 19 15 26 0 19 -39 18 -47
-2z"/>
<path d="M2927 3683 c-17 -16 -5 -33 22 -33 29 0 57 21 44 33 -8 9 -58 9 -66
0z"/>
<path d="M385 3635 c-66 -65 8 -275 116 -330 41 -22 112 -19 134 4 24 28 12
144 -21 207 -27 50 -29 58 -13 48 7 -4 10 1 7 12 -2 13 -10 18 -26 16 -13 -2
-25 3 -28 12 -10 26 -69 56 -108 56 -26 0 -44 -7 -61 -25z"/>
<path d="M2500 3644 c0 -9 7 -14 17 -12 25 5 28 28 4 28 -12 0 -21 -6 -21 -16z"/>
<path d="M1929 3613 c-22 -5 -39 -46 -39 -93 0 -30 -6 -43 -27 -59 l-28 -20
33 12 c27 9 34 9 41 -2 5 -8 11 -9 15 -3 3 5 23 12 45 16 27 4 47 16 65 37 30
35 32 49 11 89 -14 26 -21 30 -58 29 -23 -1 -49 -3 -58 -6z"/>
<path d="M2082 3540 c0 -14 2 -19 5 -12 2 6 2 18 0 25 -3 6 -5 1 -5 -13z"/>
<path d="M2546 3541 c-4 -5 -2 -12 3 -15 5 -4 12 -2 15 3 4 5 2 12 -3 15 -5 4
-12 2 -15 -3z"/>
<path d="M2301 3500 c-46 -26 -50 -31 -55 -68 -4 -39 -10 -46 -38 -47 -26 0
-47 -30 -32 -45 8 -8 23 -8 53 0 30 8 46 8 62 0 25 -14 51 5 70 53 7 18 23 42
36 54 59 56 -16 97 -96 53z"/>
<path d="M2441 3454 c-23 -29 -28 -69 -10 -80 18 -11 40 20 46 65 7 48 -6 53
-36 15z"/>
<path d="M920 3410 c0 -5 7 -10 15 -10 8 0 15 5 15 10 0 6 -7 10 -15 10 -8 0
-15 -4 -15 -10z"/>
<path d="M2817 3414 c-4 -4 -7 -16 -7 -26 0 -14 8 -18 35 -18 31 0 34 2 26 23
-8 22 -40 34 -54 21z"/>
<path d="M2495 3400 c-3 -5 -1 -10 4 -10 6 0 11 5 11 10 0 6 -2 10 -4 10 -3 0
-8 -4 -11 -10z"/>
<path d="M3040 3399 c0 -5 5 -7 10 -4 6 3 10 8 10 11 0 2 -4 4 -10 4 -5 0 -10
-5 -10 -11z"/>
<path d="M2557 3383 c-14 -13 -6 -33 12 -33 19 0 35 23 24 34 -8 8 -28 8 -36
-1z"/>
<path d="M2881 3352 c-12 -22 -6 -32 21 -32 14 0 19 6 16 22 -4 29 -24 34 -37
10z"/>
<path d="M2000 3330 c0 -27 27 -37 47 -17 20 19 9 37 -23 37 -17 0 -24 -5 -24
-20z"/>
<path d="M3316 3335 c-12 -12 -13 -21 -6 -36 20 -36 74 -18 68 22 -4 29 -39
37 -62 14z"/>
<path d="M2441 3294 c-15 -11 -21 -24 -19 -42 4 -33 37 -41 62 -16 17 17 19
56 2 54 -5 -1 -12 3 -15 9 -5 7 -14 6 -30 -5z"/>
<path d="M2863 3299 c-22 -8 -32 -29 -15 -29 12 0 48 28 42 33 -3 3 -15 1 -27
-4z"/>
<path d="M630 3280 c0 -15 5 -20 18 -18 9 2 17 10 17 18 0 8 -8 16 -17 18 -13
2 -18 -3 -18 -18z"/>
<path d="M2741 3286 c-15 -18 -4 -46 19 -46 23 0 42 24 34 44 -8 20 -37 21
-53 2z"/>
<path d="M2152 3268 c-16 -16 -15 -38 1 -38 22 0 40 18 34 34 -8 19 -19 20
-35 4z"/>
<path d="M2360 3269 c0 -5 5 -7 10 -4 6 3 10 8 10 11 0 2 -4 4 -10 4 -5 0 -10
-5 -10 -11z"/>
<path d="M732 3218 c-27 -27 -1 -108 34 -108 22 0 64 46 64 69 0 42 -68 69
-98 39z"/>
<path d="M2665 3220 c-3 -5 -1 -10 4 -10 6 0 11 5 11 10 0 6 -2 10 -4 10 -3 0
-8 -4 -11 -10z"/>
<path d="M462 3167 c-49 -52 -10 -115 62 -101 34 6 36 5 36 -20 0 -44 70 -48
91 -5 17 35 29 88 23 103 -9 23 -91 41 -86 19 3 -18 -6 -16 -30 7 -29 27 -70
25 -96 -3z"/>
<path d="M2355 3179 c-10 -15 1 -23 20 -15 9 3 13 10 10 16 -8 13 -22 13 -30
-1z"/>
<path d="M2247 3173 c-13 -12 -7 -23 13 -23 11 0 20 7 20 15 0 15 -21 21 -33
8z"/>
<path d="M2414 3166 c-24 -18 -11 -48 18 -44 14 2 24 11 26 24 4 26 -20 37
-44 20z"/>
<path d="M2700 3140 c-13 -8 -12 -10 5 -10 16 -1 14 -4 -10 -17 -24 -14 -26
-18 -12 -21 9 -2 17 -8 17 -13 0 -5 27 -9 60 -9 48 0 60 3 60 16 0 10 -6 14
-15 10 -9 -3 -15 0 -15 8 0 29 -63 54 -90 36z"/>
<path d="M3013 3143 c-45 -4 -68 -28 -57 -57 4 -11 22 -15 70 -15 53 0 66 4
74 20 14 24 -4 60 -28 57 -9 -1 -36 -3 -59 -5z"/>
<path d="M2414 3045 c-10 -24 12 -42 34 -29 24 16 21 38 -6 42 -13 2 -25 -3
-28 -13z"/>
<path d="M450 2995 c0 -8 7 -15 15 -15 8 0 15 7 15 15 0 8 -7 15 -15 15 -8 0
-15 -7 -15 -15z"/>
<path d="M660 2980 c-11 -11 -20 -27 -20 -35 0 -10 -11 -15 -35 -15 -41 0 -75
-29 -75 -63 0 -44 45 -62 84 -32 17 13 20 11 40 -28 28 -55 82 -84 128 -68 17
6 47 23 65 37 30 23 34 31 32 65 -2 21 0 41 3 44 4 4 0 14 -8 23 -8 10 -28 34
-45 55 -30 35 -34 37 -90 37 -46 0 -64 -5 -79 -20z"/>
<path d="M2206 2981 c-3 -5 3 -11 15 -14 16 -4 18 -3 8 9 -13 16 -16 17 -23 5z"/>
<path d="M2356 2977 c-18 -13 -18 -14 0 -21 10 -4 15 -4 11 0 -4 4 1 13 11 20
23 18 1 18 -22 1z"/>
<path d="M580 2949 c0 -5 5 -7 10 -4 6 3 10 8 10 11 0 2 -4 4 -10 4 -5 0 -10
-5 -10 -11z"/>
<path d="M2430 2935 c0 -9 6 -12 15 -9 8 4 12 10 9 15 -8 14 -24 10 -24 -6z"/>
<path d="M3104 2905 c-12 -8 -24 -12 -28 -10 -3 3 -4 2 -1 -1 2 -4 -2 -18 -9
-33 -12 -23 -15 -86 -4 -96 2 -2 29 -7 59 -11 51 -6 57 -4 87 24 62 58 33 141
-48 142 -20 0 -45 -7 -56 -15z"/>
<path d="M2380 2880 c0 -5 5 -10 10 -10 6 0 10 5 10 10 0 6 -4 10 -10 10 -5 0
-10 -4 -10 -10z"/>
<path d="M2677 2864 c-16 -16 -6 -35 16 -32 12 2 22 10 22 18 0 16 -26 25 -38
14z"/>
<path d="M2640 2795 c-16 -19 -3 -48 22 -53 20 -4 50 26 46 47 -4 22 -51 26
-68 6z"/>
<path d="M2300 2765 c0 -8 5 -15 10 -15 6 0 10 7 10 15 0 8 -4 15 -10 15 -5 0
-10 -7 -10 -15z"/>
<path d="M1285 2740 c-3 -5 -1 -10 4 -10 6 0 11 5 11 10 0 6 -2 10 -4 10 -3 0
-8 -4 -11 -10z"/>
<path d="M2380 2724 c0 -17 22 -14 28 4 2 7 -3 12 -12 12 -9 0 -16 -7 -16 -16z"/>
<path d="M2300 2715 c0 -10 7 -15 18 -13 21 4 19 22 -2 26 -10 2 -16 -3 -16
-13z"/>
<path d="M737 2704 c-14 -14 -7 -35 11 -32 9 2 17 10 17 17 0 16 -18 25 -28
15z"/>
<path d="M2884 2690 c-28 -11 -47 -65 -33 -91 13 -26 54 -24 73 3 19 27 21 69
4 86 -14 14 -15 14 -44 2z"/>
<path d="M1230 2680 c0 -5 12 -10 28 -9 24 0 25 1 7 9 -27 12 -35 12 -35 0z"/>
<path d="M2728 2643 c7 -3 16 -2 19 1 4 3 -2 6 -13 5 -11 0 -14 -3 -6 -6z"/>
<path d="M950 2625 c-18 -22 -5 -45 28 -45 40 0 56 19 35 42 -20 22 -46 23
-63 3z"/>
<path d="M2717 2614 c-16 -16 -6 -35 16 -32 12 2 22 10 22 18 0 16 -26 25 -38
14z"/>
<path d="M2947 2542 c-20 -22 -13 -52 13 -52 23 0 43 24 38 47 -5 25 -31 27
-51 5z"/>
<path d="M3130 2540 c0 -5 5 -10 10 -10 6 0 10 5 10 10 0 6 -4 10 -10 10 -5 0
-10 -4 -10 -10z"/>
<path d="M2847 2494 c-15 -15 -6 -24 23 -24 17 0 30 5 30 10 0 6 -4 10 -9 10
-5 0 -16 2 -23 5 -8 3 -17 2 -21 -1z"/>
<path d="M1010 2460 c0 -5 7 -10 15 -10 8 0 15 5 15 10 0 6 -7 10 -15 10 -8 0
-15 -4 -15 -10z"/>
<path d="M2865 2450 c3 -5 10 -10 16 -10 5 0 9 5 9 10 0 6 -7 10 -16 10 -8 0
-12 -4 -9 -10z"/>
<path d="M3389 2379 c-27 -34 -37 -40 -59 -36 -36 8 -50 -4 -56 -44 -3 -19 -9
-56 -14 -82 -15 -71 -12 -147 6 -200 20 -60 93 -143 117 -134 23 9 21 24 -5
45 -70 55 -88 80 -88 121 0 28 5 44 15 48 21 7 39 46 55 110 6 29 25 70 40 91
39 54 62 101 55 112 -12 20 -34 9 -66 -31z"/>
<path d="M2760 2370 c0 -5 5 -10 10 -10 6 0 10 5 10 10 0 6 -4 10 -10 10 -5 0
-10 -4 -10 -10z"/>
<path d="M2880 2310 c0 -5 5 -10 10 -10 6 0 10 5 10 10 0 6 -4 10 -10 10 -5 0
-10 -4 -10 -10z"/>
<path d="M532 2289 c2 -6 8 -10 13 -10 5 0 11 4 13 10 2 6 -4 11 -13 11 -9 0
-15 -5 -13 -11z"/>
<path d="M3070 2260 c-8 -5 -12 -12 -9 -15 4 -3 12 1 19 10 14 17 11 19 -10 5z"/>
<path d="M3125 2230 c3 -5 11 -10 16 -10 6 0 7 5 4 10 -3 6 -11 10 -16 10 -6
0 -7 -4 -4 -10z"/>
<path d="M1100 2220 c0 -5 5 -10 10 -10 6 0 10 5 10 10 0 6 -4 10 -10 10 -5 0
-10 -4 -10 -10z"/>
<path d="M961 2196 c-9 -10 -9 -16 -1 -21 17 -10 37 12 24 25 -8 8 -15 6 -23
-4z"/>
<path d="M337 2163 c-15 -14 -7 -43 12 -43 22 0 45 25 36 40 -7 11 -38 14 -48
3z"/>
<path d="M933 2163 c-21 -8 -15 -51 7 -58 11 -3 24 -3 30 0 14 8 13 38 -2 53
-13 13 -16 13 -35 5z"/>
<path d="M3396 2121 c-3 -5 1 -12 10 -15 20 -8 29 -1 19 13 -8 13 -22 14 -29
2z"/>
<path d="M695 2100 c-3 -5 1 -10 9 -10 9 0 16 5 16 10 0 6 -4 10 -9 10 -6 0
-13 -4 -16 -10z"/>
<path d="M745 2080 c3 -5 8 -10 11 -10 2 0 4 5 4 10 0 6 -5 10 -11 10 -5 0 -7
-4 -4 -10z"/>
<path d="M805 2060 c-4 -7 -3 -16 2 -21 12 -12 45 0 40 15 -5 15 -34 19 -42 6z"/>
<path d="M922 1987 c-17 -47 -15 -65 7 -77 18 -9 18 -12 5 -39 -24 -48 13 -94
56 -71 24 13 24 35 1 75 -17 29 -17 31 3 58 22 30 66 37 86 12 15 -18 36 -19
46 -3 4 6 -4 21 -18 33 -25 22 -64 26 -100 11 -11 -5 -18 -1 -23 13 -11 35
-49 27 -63 -12z"/>
<path d="M810 1860 c0 -5 5 -10 10 -10 6 0 10 5 10 10 0 6 -4 10 -10 10 -5 0
-10 -4 -10 -10z"/>
<path d="M830 1805 c0 -8 7 -15 15 -15 8 0 15 7 15 15 0 8 -7 15 -15 15 -8 0
-15 -7 -15 -15z"/>
<path d="M455 1800 c3 -5 8 -10 11 -10 2 0 4 5 4 10 0 6 -5 10 -11 10 -5 0 -7
-4 -4 -10z"/>
<path d="M555 1698 l-40 -43 43 40 c39 36 47 45 39 45 -2 0 -21 -19 -42 -42z"/>
<path d="M467 1583 c-23 -46 -28 -88 -12 -109 12 -16 16 -16 24 -5 5 7 5 25 2
40 -4 14 -4 42 0 61 10 44 4 50 -14 13z"/>
<path d="M1060 1460 c0 -5 4 -10 9 -10 6 0 13 5 16 10 3 6 -1 10 -9 10 -9 0
-16 -4 -16 -10z"/>
<path d="M3977 1405 c-4 -8 5 -23 21 -36 24 -19 27 -19 30 -4 4 16 -24 55 -38
55 -5 0 -10 -7 -13 -15z"/>
<path d="M3716 1253 c-9 -9 -7 -33 3 -33 12 0 22 28 12 34 -5 3 -11 3 -15 -1z"/>
<path d="M1579 1161 c-19 -16 -22 -22 -11 -32 10 -11 16 -9 34 9 31 31 11 51
-23 23z"/>
<path d="M3950 1136 c-18 -23 -8 -61 17 -64 26 -4 50 35 40 62 -8 20 -41 21
-57 2z"/>
<path d="M1924 1119 c-3 -6 -2 -15 4 -21 13 -13 32 -2 32 18 0 16 -26 19 -36
3z"/>
<path d="M1822 1064 c-25 -17 -29 -56 -7 -74 22 -18 64 -4 77 26 11 23 9 29
-11 45 -28 23 -31 23 -59 3z"/>
<path d="M1637 1013 c-4 -3 -7 -16 -7 -29 0 -31 29 -39 54 -15 16 17 17 22 6
35 -13 16 -42 21 -53 9z"/>
<path d="M1734 1009 c-10 -17 13 -36 27 -22 12 12 4 33 -11 33 -5 0 -12 -5
-16 -11z"/>
<path d="M3024 985 c-8 -19 3 -35 26 -35 19 0 30 17 23 38 -6 17 -42 15 -49
-3z"/>
<path d="M3125 990 c-3 -5 -3 -15 0 -20 4 -6 0 -22 -9 -35 -23 -35 -20 -49 18
-89 32 -35 36 -36 102 -36 89 0 114 -16 114 -71 0 -27 4 -39 14 -39 49 0 5
137 -72 222 -53 59 -149 98 -167 68z"/>
<path d="M2165 950 c4 -6 11 -8 16 -5 14 9 11 15 -7 15 -8 0 -12 -5 -9 -10z"/>
<path d="M2550 906 c-6 -8 -10 -25 -8 -38 2 -18 10 -24 35 -26 27 -3 35 1 44
22 9 20 9 29 -1 41 -16 19 -54 19 -70 1z"/>
<path d="M2292 870 c-31 -29 -27 -76 10 -103 l27 -20 41 22 c57 29 99 27 148
-9 46 -33 62 -57 62 -93 0 -35 26 -55 47 -35 14 14 9 24 -48 104 -80 111 -128
146 -206 152 -49 3 -62 0 -81 -18z"/>
<path d="M1302 868 c-15 -15 2 -38 28 -38 22 0 32 24 17 39 -14 14 -30 14 -45
-1z"/>
<path d="M3027 873 c-24 -24 23 -93 63 -93 27 0 27 33 -1 71 -19 27 -47 37
-62 22z"/>
<path d="M2080 854 c0 -10 7 -14 22 -12 32 5 35 28 4 28 -17 0 -26 -5 -26 -16z"/>
<path d="M1850 840 c-12 -7 -12 -12 -3 -21 9 -9 16 -9 27 1 26 21 5 39 -24 20z"/>
<path d="M1710 620 c-8 -15 -6 -21 9 -30 23 -12 54 12 45 35 -9 21 -41 18 -54
-5z"/>
<path d="M3391 631 c-17 -11 -7 -41 13 -41 22 0 30 20 15 36 -9 8 -19 10 -28
5z"/>
<path d="M3166 555 c-21 -21 -21 -51 1 -59 25 -10 61 29 47 51 -15 24 -29 26
-48 8z"/>
<path d="M2674 546 c-7 -19 3 -36 22 -36 10 0 14 8 12 22 -4 26 -26 36 -34 14z"/>
<path d="M1915 479 c-40 -35 -44 -58 -15 -84 15 -13 30 -16 61 -12 69 9 104
58 75 102 -24 37 -75 34 -121 -6z"/>
<path d="M3600 444 c0 -17 22 -14 28 4 2 7 -3 12 -12 12 -9 0 -16 -7 -16 -16z"/>
<path d="M3120 140 c0 -5 4 -10 9 -10 6 0 13 5 16 10 3 6 -1 10 -9 10 -9 0
-16 -4 -16 -10z"/>
<path d="M3136 89 c-41 -48 -30 -89 24 -89 41 0 70 26 70 64 0 62 -51 76 -94
25z"/>
</g>
</svg>
