<?xml version="1.0" encoding="UTF-8"?>
<svg id="Ebene_2" data-name="Ebene 2" xmlns="http://www.w3.org/2000/svg" viewBox="0 0 419.9 182.73">
  <defs>
    <style>
      .cls-1 {
        fill: none;
        isolation: isolate;
      }

      .cls-2 {
        fill: gold;
      }

      .cls-3 {
        fill: #6d4c72;
      }
    </style>
  </defs>
  <g id="TITLE_BARAA" data-name="TITLE BARAA">
    <g>
      <g id="Alwawi." class="cls-1">
        <g class="cls-1">
          <path class="cls-3" d="m94.49,158.36h-19.69l-7.66,21.48h7.46v1.89h-15.22v-1.89h4.67l25.36-68.33h8.16l25.06,68.33h4.58v1.89h-32.52v-1.89h7.06l-7.26-21.48Zm-18.8-2.19h18l-8.65-26.06-9.35,26.06Z"/>
          <path class="cls-3" d="m152.77,107.14v72.8h5.57v1.79h-29.54v-1.79h5.47v-71.01h-5.87v-1.79h24.37Z"/>
          <path class="cls-3" d="m191.26,134.39h25.66v1.79h-4.08l8.95,33.52,8.85-33.52h-6.86v-1.79h13.43v1.79h-4.18l-11.93,45.55h-13.63l-8.65-30.53-9.35,30.53h-13.33l-14.72-45.55h-4.48v-1.79h30.14v1.79h-5.97l9.15,33.81,7.16-23.27-2.49-10.54h-3.68v-1.79Z"/>
          <path class="cls-3" d="m262.66,158.36v-7.66c0-12.63-1.09-15.91-5.07-15.91-1.79,0-4.67.79-4.67,3.98,0,.79.2,1.79.6,2.88h2.49c.5,1.29.8,2.59.8,4.48,0,4.67-3.78,7.76-8.75,7.76-6.17,0-8.55-3.38-8.55-8.25,0-8.35,7.26-12.23,20.79-12.23,15.61,0,20.89,4.38,20.89,18.8v20.19c0,4.08,1.19,5.17,2.88,5.17,1.79,0,3.48-1.89,3.98-10.24l1.49.1c-.5,11.94-4.18,15.32-12.73,15.32-8.06,0-12.53-2.49-13.73-7.36-1.59,4.77-4.48,7.36-11.44,7.36s-14.72-2.09-14.72-12.03,8.65-12.33,22.87-12.33h2.88Zm0,10.84v-9.25h-.7c-4.18,0-6.17,2.98-6.17,9.05v1.59c0,7.16.7,8.16,2.59,8.16s4.28-3.18,4.28-9.55Z"/>
          <path class="cls-3" d="m318.56,134.39h25.66v1.79h-4.08l8.95,33.52,8.85-33.52h-6.86v-1.79h13.43v1.79h-4.18l-11.93,45.55h-13.62l-8.65-30.53-9.35,30.53h-13.33l-14.72-45.55h-4.48v-1.79h30.14v1.79h-5.97l9.15,33.81,7.16-23.27-2.49-10.54h-3.68v-1.79Z"/>
          <path class="cls-3" d="m391.46,134.39v45.55h5.57v1.79h-29.54v-1.79h5.47v-43.76h-5.87v-1.79h24.37Zm-8.95-25.36c6.17,0,9.85,3.08,9.85,9.15,0,5.27-2.88,9.35-10.04,9.35-8.06,0-9.95-5.07-9.95-9.25,0-4.87,2.69-9.25,10.14-9.25Z"/>
        </g>
        <g class="cls-1">
          <path class="cls-2" d="m411.05,165.42c5.17,0,8.85,2.59,8.85,8.45,0,5.27-2.98,8.85-8.55,8.85-6.66,0-8.85-4.57-8.85-8.55,0-4.87,2.98-8.75,8.55-8.75Z"/>
        </g>
      </g>
      <g id="Baraa_" data-name="Baraa " class="cls-1">
        <g class="cls-1">
          <path class="cls-3" d="m29.74,0c17.5,0,27.65,3.98,27.65,16.31,0,9.55-5.97,14.62-16.41,16.31v.2c12.53,1.59,19.89,6.86,19.89,17.31,0,15.42-12.93,19.49-31.63,19.49H0v-1.89h6.46V1.89H0V0h29.74Zm-3.88,32.52h2.59c7.16,0,9.25-4.58,9.25-12.73v-4.67c0-9.55-1.69-13.23-8.65-13.23h-3.18v30.63Zm0,35.21h4.67c7.66,0,9.85-5.77,9.85-14.92v-5.27c0-8.16-2.59-13.13-12.23-13.13h-2.29v33.32Z"/>
          <path class="cls-3" d="m91.2,46.25v-7.66c0-12.63-1.09-15.91-5.07-15.91-1.79,0-4.67.8-4.67,3.98,0,.8.2,1.79.6,2.88h2.49c.5,1.29.8,2.59.8,4.48,0,4.67-3.78,7.76-8.75,7.76-6.17,0-8.55-3.38-8.55-8.25,0-8.35,7.26-12.23,20.79-12.23,15.61,0,20.89,4.38,20.89,18.8v20.19c0,4.08,1.19,5.17,2.88,5.17,1.79,0,3.48-1.89,3.98-10.24l1.49.1c-.5,11.93-4.18,15.32-12.73,15.32-8.06,0-12.53-2.49-13.72-7.36-1.59,4.77-4.48,7.36-11.44,7.36s-14.72-2.09-14.72-12.03,8.65-12.33,22.88-12.33h2.88Zm0,10.84v-9.25h-.7c-4.18,0-6.17,2.98-6.17,9.05v1.59c0,7.16.7,8.16,2.59,8.16s4.28-3.18,4.28-9.55Z"/>
          <path class="cls-3" d="m143.02,41.17v26.65h7.06v1.79h-31.03v-1.79h5.47V24.07h-5.47v-1.79h23.97v9.55c1.79-7.06,7.36-10.54,13.33-10.54s10.54,3.08,10.54,10.64c0,5.67-2.98,9.45-8.35,9.45-6.66,0-9.85-4.18-7.76-11.24h3.58c1.99-4.08,0-5.07-2.09-5.07-4.77,0-9.25,7.16-9.25,16.11Z"/>
          <path class="cls-3" d="m193.54,46.25v-7.66c0-12.63-1.09-15.91-5.07-15.91-1.79,0-4.67.8-4.67,3.98,0,.8.2,1.79.6,2.88h2.49c.5,1.29.8,2.59.8,4.48,0,4.67-3.78,7.76-8.75,7.76-6.17,0-8.55-3.38-8.55-8.25,0-8.35,7.26-12.23,20.79-12.23,15.61,0,20.89,4.38,20.89,18.8v20.19c0,4.08,1.19,5.17,2.88,5.17,1.79,0,3.48-1.89,3.98-10.24l1.49.1c-.5,11.93-4.18,15.32-12.73,15.32-8.06,0-12.53-2.49-13.72-7.36-1.59,4.77-4.48,7.36-11.44,7.36s-14.72-2.09-14.72-12.03,8.65-12.33,22.88-12.33h2.88Zm0,10.84v-9.25h-.7c-4.18,0-6.17,2.98-6.17,9.05v1.59c0,7.16.7,8.16,2.59,8.16s4.28-3.18,4.28-9.55Z"/>
          <path class="cls-3" d="m248.14,46.25v-7.66c0-12.63-1.09-15.91-5.07-15.91-1.79,0-4.68.8-4.68,3.98,0,.8.2,1.79.6,2.88h2.49c.5,1.29.79,2.59.79,4.48,0,4.67-3.78,7.76-8.75,7.76-6.17,0-8.55-3.38-8.55-8.25,0-8.35,7.26-12.23,20.79-12.23,15.62,0,20.89,4.38,20.89,18.8v20.19c0,4.08,1.19,5.17,2.88,5.17,1.79,0,3.48-1.89,3.98-10.24l1.49.1c-.5,11.93-4.18,15.32-12.73,15.32-8.06,0-12.53-2.49-13.72-7.36-1.59,4.77-4.48,7.36-11.44,7.36s-14.72-2.09-14.72-12.03,8.65-12.33,22.88-12.33h2.88Zm0,10.84v-9.25h-.7c-4.18,0-6.17,2.98-6.17,9.05v1.59c0,7.16.7,8.16,2.59,8.16s4.28-3.18,4.28-9.55Z"/>
        </g>
      </g>
    </g>
  </g>
</svg>